<?xml version="1.0" standalone="no"?>
<!DOCTYPE svg PUBLIC "-//W3C//DTD SVG 20010904//EN"
 "http://www.w3.org/TR/2001/REC-SVG-20010904/DTD/svg10.dtd">
<svg version="1.0" xmlns="http://www.w3.org/2000/svg"
 width="960.000000pt" height="960.000000pt" viewBox="0 0 960.000000 960.000000"
 preserveAspectRatio="xMidYMid meet">
<metadata>
Created by potrace 1.16, written by Peter Selinger 2001-2019
</metadata>
<g transform="translate(0.000000,960.000000) scale(0.100000,-0.100000)"
fill="#000000" stroke="none">
<path d="M0 4800 l0 -4800 4800 0 4800 0 0 4800 0 4800 -4800 0 -4800 0 0
-4800z m5395 2901 c22 -11 52 -30 67 -43 14 -12 81 -117 148 -233 68 -115 179
-307 248 -425 69 -118 132 -227 141 -242 9 -15 55 -94 102 -175 48 -81 140
-238 204 -348 65 -110 126 -213 135 -230 10 -16 86 -147 170 -290 84 -143 186
-318 227 -390 42 -71 84 -142 94 -157 11 -14 19 -28 19 -31 0 -2 37 -67 81
-143 45 -76 112 -191 149 -254 37 -63 97 -167 135 -230 37 -63 81 -140 98
-170 17 -30 38 -66 47 -80 10 -14 53 -86 96 -160 74 -128 78 -139 82 -205 4
-81 4 -81 -146 -332 -49 -82 -135 -227 -192 -323 -57 -96 -122 -206 -145 -245
-24 -38 -123 -205 -220 -370 -98 -165 -198 -334 -222 -375 -70 -116 -119 -150
-223 -150 -114 0 -146 31 -291 281 -99 171 -124 213 -219 374 -45 77 -92 158
-105 180 -46 82 -367 633 -425 730 -29 49 -201 345 -263 453 -97 168 -223 382
-247 422 -15 25 -61 104 -102 175 -117 201 -494 850 -553 950 -104 177 -107
183 -103 255 3 59 10 76 70 180 36 64 76 134 88 155 12 22 93 164 180 315 86
151 257 451 379 665 229 402 263 450 333 472 52 17 119 14 163 -6z m-614
-3836 c24 -9 56 -26 70 -38 22 -20 139 -198 139 -212 0 -3 36 -64 80 -136 44
-71 80 -132 80 -135 0 -3 20 -37 45 -75 25 -38 45 -71 45 -74 0 -2 22 -40 50
-85 28 -45 50 -83 50 -85 0 -2 60 -104 133 -227 74 -123 155 -259 181 -303 26
-44 53 -89 59 -100 7 -11 19 -31 28 -45 16 -26 71 -123 96 -172 21 -41 18
-118 -5 -165 -27 -51 -81 -99 -129 -112 -26 -8 -597 -11 -1785 -11 -1623 0
-1751 1 -1790 17 -74 30 -127 108 -128 190 0 64 5 76 102 236 43 70 78 130 78
132 0 3 29 52 64 110 36 58 68 114 71 125 4 11 11 20 16 20 5 0 9 4 9 9 0 8
118 210 266 456 36 61 131 220 210 355 148 251 192 307 256 327 22 7 306 11
849 12 710 1 821 -1 860 -14z"/>
</g>
</svg>
